<svg xmlns="http://www.w3.org/2000/svg" viewBox="0 0 900 1100" width="900" height="1100">
  <defs>
    <linearGradient id="bg" x1="0" y1="0" x2="1" y2="1">
      <stop offset="0" stop-color="#21215A"/>
      <stop offset="1" stop-color="#1b1b4a"/>
    </linearGradient>
    <radialGradient id="glow" cx="0.5" cy="0.3" r="0.7">
      <stop offset="0" stop-color="#5B5BF0" stop-opacity="0.3"/>
      <stop offset="1" stop-color="#5B5BF0" stop-opacity="0"/>
    </radialGradient>
  </defs>
  <rect width="900" height="1100" fill="url(#bg)"/>
  <rect width="900" height="1100" fill="url(#glow)"/>
  <g transform="translate(150 220) scale(1)">
    <path d="
  M150 150
  L70 220
  L120 310
  L190 270
  L190 620
  Q190 640 210 640
  L390 640
  Q410 640 410 620
  L410 270
  L480 310
  L530 220
  L450 150
  C410 220 340 242 300 242
  C260 242 190 220 150 150
  Z" fill="#282867" opacity="0.92"/>
  </g>
  <text x="60" y="980" font-family="Inter, system-ui, sans-serif" font-size="54" font-weight="700" fill="#FFFFFF">The Off-Day</text>
  <text x="60" y="1030" font-family="Inter, system-ui, sans-serif" font-size="26" fill="#FFFFFF" fill-opacity="0.65">Comfort, elevated.</text>
</svg>